<svg xmlns="http://www.w3.org/2000/svg" xmlns:xlink="http://www.w3.org/1999/xlink" xmlns:lucid="lucid" width="666" height="601"><g transform="translate(-1052 -44)" lucid:page-tab-id="0_0"><path d="M1100 529h580v60h-580z" stroke="#000" stroke-width="2" fill="#7ab648"/><use xlink:href="#a" transform="matrix(1,0,0,1,1105,534) translate(192.6604938271605 31.22222222222222)"/><path d="M1100 454h580v60h-580z" stroke="#000" stroke-width="2" fill="#b2b2b2"/><use xlink:href="#b" transform="matrix(1,0,0,1,1105,459) translate(210.85185185185185 31.22222222222222)"/><path d="M1100 105c0-13.8 11.2-25 25-25h110c13.8 0 25 11.2 25 25v314.33c0 13.8-11.2 25-25 25h-110c-13.8 0-25-11.2-25-25zM1300 105c0-13.8 11.2-25 25-25h110c13.8 0 25 11.2 25 25v314.33c0 13.8-11.2 25-25 25h-110c-13.8 0-25-11.2-25-25zM1500 105c0-13.8 11.2-25 25-25h110c13.8 0 25 11.2 25 25v314.33c0 13.8-11.2 25-25 25h-110c-13.8 0-25-11.2-25-25z" stroke="#000" stroke-width="2" fill="#fff"/><path d="M1120 249h120v160h-120z" stroke="#000" stroke-width="2" fill="#5e9cd3"/><use xlink:href="#c" transform="matrix(1,0,0,1,1125,254) translate(22.549999999999997 57)"/><use xlink:href="#d" transform="matrix(1,0,0,1,1125,254) translate(8.574999999999996 78.60000000000001)"/><use xlink:href="#e" transform="matrix(1,0,0,1,1125,254) translate(10.5 100.20000000000002)"/><path d="M1320 249h120v160h-120z" stroke="#000" stroke-width="2" fill="#5e9cd3"/><use xlink:href="#c" transform="matrix(1,0,0,1,1325,254) translate(22.549999999999997 57)"/><use xlink:href="#d" transform="matrix(1,0,0,1,1325,254) translate(8.574999999999996 78.60000000000001)"/><use xlink:href="#e" transform="matrix(1,0,0,1,1325,254) translate(10.5 100.20000000000002)"/><path d="M1520 249h120v160h-120z" stroke="#000" stroke-width="2" fill="#5e9cd3"/><use xlink:href="#c" transform="matrix(1,0,0,1,1525,254) translate(22.549999999999997 57)"/><use xlink:href="#d" transform="matrix(1,0,0,1,1525,254) translate(8.574999999999996 78.60000000000001)"/><use xlink:href="#e" transform="matrix(1,0,0,1,1525,254) translate(10.5 100.20000000000002)"/><path d="M1120 149h120v100h-120z" stroke="#000" stroke-width="2" fill="#00215c"/><use xlink:href="#f" transform="matrix(1,0,0,1,1125,154) translate(30.5 48.6)"/><use xlink:href="#g" transform="matrix(1,0,0,1,1125,154) translate(67.5 48.6)"/><path d="M1320 149h120v100h-120z" stroke="#000" stroke-width="2" fill="#00215c"/><use xlink:href="#f" transform="matrix(1,0,0,1,1325,154) translate(30.5 48.6)"/><use xlink:href="#h" transform="matrix(1,0,0,1,1325,154) translate(67.5 48.6)"/><path d="M1520 149h120v100h-120z" stroke="#000" stroke-width="2" fill="#00215c"/><g><use xlink:href="#f" transform="matrix(1,0,0,1,1525,154) translate(30.025 48.6)"/><use xlink:href="#i" transform="matrix(1,0,0,1,1525,154) translate(67.025 48.6)"/></g><path d="M1060 80h240v60h-240z" stroke="#000" stroke-opacity="0" stroke-width="2" fill="#fff" fill-opacity="0"/><g><use xlink:href="#j" transform="matrix(1,0,0,1,1065,85) translate(54.125 28.6)"/><use xlink:href="#k" transform="matrix(1,0,0,1,1065,85) translate(128.025 28.6)"/></g><path d="M1260 80h240v60h-240z" stroke="#000" stroke-opacity="0" stroke-width="2" fill="#fff" fill-opacity="0"/><g><use xlink:href="#j" transform="matrix(1,0,0,1,1265,85) translate(54.125 28.6)"/><use xlink:href="#k" transform="matrix(1,0,0,1,1265,85) translate(128.025 28.6)"/></g><path d="M1460 80h240v60h-240z" stroke="#000" stroke-opacity="0" stroke-width="2" fill="#fff" fill-opacity="0"/><g><use xlink:href="#j" transform="matrix(1,0,0,1,1465,85.00000000000011) translate(54.125 28.6)"/><use xlink:href="#k" transform="matrix(1,0,0,1,1465,85.00000000000011) translate(128.025 28.6)"/></g><defs><path fill="#fff" d="M33 0v-248h34V0H33" id="l"/><path fill="#fff" d="M117-194c89-4 53 116 60 194h-32v-121c0-31-8-49-39-48C34-167 62-67 57 0H25l-1-190h30c1 10-1 24 2 32 11-22 29-35 61-36" id="m"/><path fill="#fff" d="M101-234c-31-9-42 10-38 44h38v23H63V0H32v-167H5v-23h27c-7-52 17-82 69-68v24" id="n"/><path fill="#fff" d="M114-163C36-179 61-72 57 0H25l-1-190h30c1 12-1 29 2 39 6-27 23-49 58-41v29" id="o"/><path fill="#fff" d="M141-36C126-15 110 5 73 4 37 3 15-17 15-53c-1-64 63-63 125-63 3-35-9-54-41-54-24 1-41 7-42 31l-33-3c5-37 33-52 76-52 45 0 72 20 72 64v82c-1 20 7 32 28 27v20c-31 9-61-2-59-35zM48-53c0 20 12 33 32 33 41-3 63-29 60-74-43 2-92-5-92 41" id="p"/><path fill="#fff" d="M100-194c63 0 86 42 84 106H49c0 40 14 67 53 68 26 1 43-12 49-29l28 8c-11 28-37 45-77 45C44 4 14-33 15-96c1-61 26-98 85-98zm52 81c6-60-76-77-97-28-3 7-6 17-6 28h103" id="q"/><path fill="#fff" d="M135-143c-3-34-86-38-87 0 15 53 115 12 119 90S17 21 10-45l28-5c4 36 97 45 98 0-10-56-113-15-118-90-4-57 82-63 122-42 12 7 21 19 24 35" id="r"/><path fill="#fff" d="M59-47c-2 24 18 29 38 22v24C64 9 27 4 27-40v-127H5v-23h24l9-43h21v43h35v23H59v120" id="s"/><path fill="#fff" d="M84 4C-5 8 30-112 23-190h32v120c0 31 7 50 39 49 72-2 45-101 50-169h31l1 190h-30c-1-10 1-25-2-33-11 22-28 36-60 37" id="t"/><g id="a"><use transform="matrix(0.08641975308641976,0,0,0.08641975308641976,0,0)" xlink:href="#l"/><use transform="matrix(0.08641975308641976,0,0,0.08641975308641976,8.641975308641976,0)" xlink:href="#m"/><use transform="matrix(0.08641975308641976,0,0,0.08641975308641976,25.925925925925927,0)" xlink:href="#n"/><use transform="matrix(0.08641975308641976,0,0,0.08641975308641976,34.567901234567906,0)" xlink:href="#o"/><use transform="matrix(0.08641975308641976,0,0,0.08641975308641976,44.851851851851855,0)" xlink:href="#p"/><use transform="matrix(0.08641975308641976,0,0,0.08641975308641976,62.13580246913581,0)" xlink:href="#q"/><use transform="matrix(0.08641975308641976,0,0,0.08641975308641976,79.41975308641976,0)" xlink:href="#r"/><use transform="matrix(0.08641975308641976,0,0,0.08641975308641976,94.97530864197532,0)" xlink:href="#s"/><use transform="matrix(0.08641975308641976,0,0,0.08641975308641976,103.61728395061729,0)" xlink:href="#o"/><use transform="matrix(0.08641975308641976,0,0,0.08641975308641976,113.90123456790124,0)" xlink:href="#t"/><use transform="matrix(0.08641975308641976,0,0,0.08641975308641976,131.1851851851852,0)" xlink:href="#s"/><use transform="matrix(0.08641975308641976,0,0,0.08641975308641976,139.82716049382717,0)" xlink:href="#t"/><use transform="matrix(0.08641975308641976,0,0,0.08641975308641976,157.11111111111111,0)" xlink:href="#o"/><use transform="matrix(0.08641975308641976,0,0,0.08641975308641976,167.39506172839506,0)" xlink:href="#p"/></g><path fill="#fff" d="M197 0v-115H63V0H30v-248h33v105h134v-105h34V0h-34" id="u"/><path fill="#fff" d="M179-190L93 31C79 59 56 82 12 73V49c39 6 53-20 64-50L1-190h34L92-34l54-156h33" id="v"/><path fill="#fff" d="M115-194c55 1 70 41 70 98S169 2 115 4C84 4 66-9 55-30l1 105H24l-1-265h31l2 30c10-21 28-34 59-34zm-8 174c40 0 45-34 45-75s-6-73-45-74c-42 0-51 32-51 76 0 43 10 73 51 73" id="w"/><path fill="#fff" d="M108 0H70L1-190h34L89-25l56-165h34" id="x"/><path fill="#fff" d="M24-231v-30h32v30H24zM24 0v-190h32V0H24" id="y"/><path fill="#fff" d="M100-194c62-1 85 37 85 99 1 63-27 99-86 99S16-35 15-95c0-66 28-99 85-99zM99-20c44 1 53-31 53-75 0-43-8-75-51-75s-53 32-53 75 10 74 51 75" id="z"/><g id="b"><use transform="matrix(0.08641975308641976,0,0,0.08641975308641976,0,0)" xlink:href="#u"/><use transform="matrix(0.08641975308641976,0,0,0.08641975308641976,22.38271604938272,0)" xlink:href="#v"/><use transform="matrix(0.08641975308641976,0,0,0.08641975308641976,37.93827160493828,0)" xlink:href="#w"/><use transform="matrix(0.08641975308641976,0,0,0.08641975308641976,55.22222222222223,0)" xlink:href="#q"/><use transform="matrix(0.08641975308641976,0,0,0.08641975308641976,72.50617283950618,0)" xlink:href="#o"/><use transform="matrix(0.08641975308641976,0,0,0.08641975308641976,82.79012345679013,0)" xlink:href="#x"/><use transform="matrix(0.08641975308641976,0,0,0.08641975308641976,98.34567901234568,0)" xlink:href="#y"/><use transform="matrix(0.08641975308641976,0,0,0.08641975308641976,105.17283950617285,0)" xlink:href="#r"/><use transform="matrix(0.08641975308641976,0,0,0.08641975308641976,120.7283950617284,0)" xlink:href="#z"/><use transform="matrix(0.08641975308641976,0,0,0.08641975308641976,138.01234567901236,0)" xlink:href="#o"/></g><path fill="#fff" d="M185-189c-5-48-123-54-124 2 14 75 158 14 163 119 3 78-121 87-175 55-17-10-28-26-33-46l33-7c5 56 141 63 141-1 0-78-155-14-162-118-5-82 145-84 179-34 5 7 8 16 11 25" id="A"/><path fill="#fff" d="M210-169c-67 3-38 105-44 169h-31v-121c0-29-5-50-35-48C34-165 62-65 56 0H25l-1-190h30c1 10-1 24 2 32 10-44 99-50 107 0 11-21 27-35 58-36 85-2 47 119 55 194h-31v-121c0-29-5-49-35-48" id="B"/><g id="c"><use transform="matrix(0.05,0,0,0.05,0,0)" xlink:href="#A"/><use transform="matrix(0.05,0,0,0.05,12,0)" xlink:href="#y"/><use transform="matrix(0.05,0,0,0.05,15.949999999999998,0)" xlink:href="#r"/><use transform="matrix(0.05,0,0,0.05,24.95,0)" xlink:href="#s"/><use transform="matrix(0.05,0,0,0.05,29.950000000000003,0)" xlink:href="#q"/><use transform="matrix(0.05,0,0,0.05,39.95,0)" xlink:href="#B"/><use transform="matrix(0.05,0,0,0.05,54.900000000000006,0)" xlink:href="#p"/></g><path fill="#fff" d="M96-169c-40 0-48 33-48 73s9 75 48 75c24 0 41-14 43-38l32 2c-6 37-31 61-74 61-59 0-76-41-82-99-10-93 101-131 147-64 4 7 5 14 7 22l-32 3c-4-21-16-35-41-35" id="C"/><path fill="#fff" d="M24 0v-261h32V0H24" id="D"/><g id="d"><use transform="matrix(0.05,0,0,0.05,0,0)" xlink:href="#z"/><use transform="matrix(0.05,0,0,0.05,10,0)" xlink:href="#w"/><use transform="matrix(0.05,0,0,0.05,20,0)" xlink:href="#q"/><use transform="matrix(0.05,0,0,0.05,30,0)" xlink:href="#o"/><use transform="matrix(0.05,0,0,0.05,35.95,0)" xlink:href="#p"/><use transform="matrix(0.05,0,0,0.05,45.95,0)" xlink:href="#C"/><use transform="matrix(0.05,0,0,0.05,54.95,0)" xlink:href="#y"/><use transform="matrix(0.05,0,0,0.05,58.900000000000006,0)" xlink:href="#z"/><use transform="matrix(0.05,0,0,0.05,68.9,0)" xlink:href="#m"/><use transform="matrix(0.05,0,0,0.05,78.9,0)" xlink:href="#p"/><use transform="matrix(0.05,0,0,0.05,88.9,0)" xlink:href="#D"/></g><path fill="#fff" d="M106-169C34-169 62-67 57 0H25v-261h32l-1 103c12-21 28-36 61-36 89 0 53 116 60 194h-32v-121c2-32-8-49-39-48" id="E"/><path fill="#fff" d="M85-194c31 0 48 13 60 33l-1-100h32l1 261h-30c-2-10 0-23-3-31C134-8 116 4 85 4 32 4 16-35 15-94c0-66 23-100 70-100zm9 24c-40 0-46 34-46 75 0 40 6 74 45 74 42 0 51-32 51-76 0-42-9-74-50-73" id="F"/><g id="e"><use transform="matrix(0.05,0,0,0.05,0,0)" xlink:href="#E"/><use transform="matrix(0.05,0,0,0.05,10,0)" xlink:href="#z"/><use transform="matrix(0.05,0,0,0.05,20,0)" xlink:href="#r"/><use transform="matrix(0.05,0,0,0.05,29,0)" xlink:href="#w"/><use transform="matrix(0.05,0,0,0.05,39,0)" xlink:href="#q"/><use transform="matrix(0.05,0,0,0.05,49,0)" xlink:href="#F"/><use transform="matrix(0.05,0,0,0.05,59,0)" xlink:href="#p"/><use transform="matrix(0.05,0,0,0.05,69,0)" xlink:href="#F"/><use transform="matrix(0.05,0,0,0.05,79,0)" xlink:href="#z"/></g><path fill="#fff" d="M205 0l-28-72H64L36 0H1l101-248h38L239 0h-34zm-38-99l-47-123c-12 45-31 82-46 123h93" id="G"/><g id="f"><use transform="matrix(0.05,0,0,0.05,0,0)" xlink:href="#G"/><use transform="matrix(0.05,0,0,0.05,12,0)" xlink:href="#w"/><use transform="matrix(0.05,0,0,0.05,22,0)" xlink:href="#w"/></g><use transform="matrix(0.05,0,0,0.05,0,0)" xlink:href="#G" id="g"/><path fill="#fff" d="M160-131c35 5 61 23 61 61C221 17 115-2 30 0v-248c76 3 177-17 177 60 0 33-19 50-47 57zm-97-11c50-1 110 9 110-42 0-47-63-36-110-37v79zm0 115c55-2 124 14 124-45 0-56-70-42-124-44v89" id="H"/><use transform="matrix(0.05,0,0,0.05,0,0)" xlink:href="#H" id="h"/><path fill="#fff" d="M212-179c-10-28-35-45-73-45-59 0-87 40-87 99 0 60 29 101 89 101 43 0 62-24 78-52l27 14C228-24 195 4 139 4 59 4 22-46 18-125c-6-104 99-153 187-111 19 9 31 26 39 46" id="I"/><use transform="matrix(0.05,0,0,0.05,0,0)" xlink:href="#I" id="i"/><path d="M240 0l2-218c-23 76-54 145-80 218h-23L58-218 59 0H30v-248h44l77 211c21-75 51-140 76-211h43V0h-30" id="J"/><path d="M141-36C126-15 110 5 73 4 37 3 15-17 15-53c-1-64 63-63 125-63 3-35-9-54-41-54-24 1-41 7-42 31l-33-3c5-37 33-52 76-52 45 0 72 20 72 64v82c-1 20 7 32 28 27v20c-31 9-61-2-59-35zM48-53c0 20 12 33 32 33 41-3 63-29 60-74-43 2-92-5-92 41zm25-158c8-23 27-35 38-54h36v5l-58 49H73" id="K"/><path d="M145-31C134-9 116 4 85 4 32 4 16-35 15-94c0-59 17-99 70-100 32-1 48 14 60 33 0-11-1-24 2-32h30l-1 268h-32zM93-21c41 0 51-33 51-76s-8-73-50-73c-40 0-46 35-46 75s5 74 45 74" id="L"/><path d="M84 4C-5 8 30-112 23-190h32v120c0 31 7 50 39 49 72-2 45-101 50-169h31l1 190h-30c-1-10 1-25-2-33-11 22-28 36-60 37" id="M"/><path d="M24-231v-30h32v30H24zM24 0v-190h32V0H24" id="N"/><path d="M117-194c89-4 53 116 60 194h-32v-121c0-31-8-49-39-48C34-167 62-67 57 0H25l-1-190h30c1 10-1 24 2 32 11-22 29-35 61-36" id="O"/><path d="M141-36C126-15 110 5 73 4 37 3 15-17 15-53c-1-64 63-63 125-63 3-35-9-54-41-54-24 1-41 7-42 31l-33-3c5-37 33-52 76-52 45 0 72 20 72 64v82c-1 20 7 32 28 27v20c-31 9-61-2-59-35zM48-53c0 20 12 33 32 33 41-3 63-29 60-74-43 2-92-5-92 41" id="P"/><g id="j"><use transform="matrix(0.05,0,0,0.05,0,0)" xlink:href="#J"/><use transform="matrix(0.05,0,0,0.05,14.950000000000001,0)" xlink:href="#K"/><use transform="matrix(0.05,0,0,0.05,24.950000000000003,0)" xlink:href="#L"/><use transform="matrix(0.05,0,0,0.05,34.95,0)" xlink:href="#M"/><use transform="matrix(0.05,0,0,0.05,44.95,0)" xlink:href="#N"/><use transform="matrix(0.05,0,0,0.05,48.900000000000006,0)" xlink:href="#O"/><use transform="matrix(0.05,0,0,0.05,58.900000000000006,0)" xlink:href="#P"/></g><path d="M108 0H70L1-190h34L89-25l56-165h34" id="Q"/><path d="M114-163C36-179 61-72 57 0H25l-1-190h30c1 12-1 29 2 39 6-27 23-49 58-41v29" id="R"/><path d="M59-47c-2 24 18 29 38 22v24C64 9 27 4 27-40v-127H5v-23h24l9-43h21v43h35v23H59v120" id="S"/><path d="M24 0v-261h32V0H24" id="T"/><g id="k"><use transform="matrix(0.05,0,0,0.05,0,0)" xlink:href="#Q"/><use transform="matrix(0.05,0,0,0.05,9,0)" xlink:href="#N"/><use transform="matrix(0.05,0,0,0.05,12.949999999999998,0)" xlink:href="#R"/><use transform="matrix(0.05,0,0,0.05,18.9,0)" xlink:href="#S"/><use transform="matrix(0.05,0,0,0.05,23.9,0)" xlink:href="#M"/><use transform="matrix(0.05,0,0,0.05,33.9,0)" xlink:href="#P"/><use transform="matrix(0.05,0,0,0.05,43.9,0)" xlink:href="#T"/></g></defs></g></svg>