<svg xmlns="http://www.w3.org/2000/svg" xmlns:xlink="http://www.w3.org/1999/xlink" xmlns:lucid="lucid" width="814" height="514"><g transform="translate(-624 -657)" lucid:page-tab-id="0_0"><path d="M1220 1125.75h-160V793.9h160z" fill="#fff"/><path d="M1204 1125.75h16V793.9h-16" stroke="#000" stroke-width="2" fill="none"/><path d="M998.46 1065.97h180v60h-180z" stroke="#000" stroke-width="2" fill="#fff"/><use xlink:href="#a" transform="matrix(1,0,0,1,1003.460469928345,1070.9700854700855) translate(43.55 28.6)"/><use xlink:href="#b" transform="matrix(1,0,0,1,1003.460469928345,1070.9700854700855) translate(116.45 28.6)"/><path d="M998.46 995.97h180v60h-180z" stroke="#000" stroke-width="2" fill="#fff"/><use xlink:href="#a" transform="matrix(1,0,0,1,1003.460469928345,1000.9700854700855) translate(43.55 28.6)"/><use xlink:href="#c" transform="matrix(1,0,0,1,1003.460469928345,1000.9700854700855) translate(116.45 28.6)"/><path d="M998.46 925.97h180v60h-180z" stroke="#000" stroke-width="2" fill="#fff"/><use xlink:href="#a" transform="matrix(1,0,0,1,1003.460469928345,930.9700854700855) translate(43.55 28.6)"/><use xlink:href="#d" transform="matrix(1,0,0,1,1003.460469928345,930.9700854700855) translate(116.45 28.6)"/><path d="M1000 860h180v60h-180z" stroke="#000" stroke-width="2" fill="#fff"/><use xlink:href="#a" transform="matrix(1,0,0,1,1005,865) translate(43.55 28.6)"/><use xlink:href="#e" transform="matrix(1,0,0,1,1005,865) translate(116.45 28.6)"/><path d="M1000 794.03h180v60h-180z" stroke="#000" stroke-width="2" fill="#fff"/><use xlink:href="#a" transform="matrix(1,0,0,1,1005,799.0299145299145) translate(43.55 28.6)"/><use xlink:href="#f" transform="matrix(1,0,0,1,1005,799.0299145299145) translate(116.45 28.6)"/><path d="M1260 840v240h-60V840z" stroke="#000" stroke-opacity="0" stroke-width="2" fill="#fff" fill-opacity="0"/><use xlink:href="#g" transform="matrix(6.123233995736766e-17,1,-1,6.123233995736766e-17,1255,845) translate(36.625 28.6)"/><use xlink:href="#h" transform="matrix(6.123233995736766e-17,1,-1,6.123233995736766e-17,1255,845) translate(118.525 28.6)"/><path d="M1181.93 749.64l60.77-23.07" stroke="#000" stroke-width="2" fill="none"/><path d="M1182.3 750.57l-1.3.5v-2.14l.6-.23z"/><path d="M1256.97 721.15l-11.7 9.4-3.28-8.67z" stroke="#000" stroke-width="2"/><use xlink:href="#a" transform="matrix(1,0,0,1,1259.5812744887485,715.9957905069646) translate(0 14.4)"/><use xlink:href="#i" transform="matrix(1,0,0,1,1259.5812744887485,715.9957905069646) translate(72.9 14.4)"/><path d="M996.46 1026.97h-50.5v-2h50.5z"/><path d="M997.46 1026.97h-1.03v-2h1.03z"/><path/><path/><use xlink:href="#j" transform="matrix(1,0,0,1,894.025,1015.1700854700855) translate(0 14.4)"/><use xlink:href="#k" transform="matrix(1,0,0,1,894.025,1015.1700854700855) translate(25 14.4)"/><path d="M996.46 1096.97h-55.5v-2h55.5z"/><path d="M997.46 1096.97h-1.03v-2h1.03z"/><path/><path/><use xlink:href="#l" transform="matrix(1,0,0,1,899.025,1085.1700854700855) translate(0 14.4)"/><use xlink:href="#k" transform="matrix(1,0,0,1,899.025,1085.1700854700855) translate(15 14.4)"/><path d="M1000 720h180v60h-180z" fill="#fff"/><path d="M1020 720h20m10 0h20m10 0h20m10 0h20m10 0h20m10 0h10v10m0 10v20m0 10v10h-10m-10 0h-20m-10 0h-20m-10 0h-20m-10 0h-20m-10 0h-20m-10 0h-10v-10m0-10v-20m0-10v-10h10" stroke="#000" stroke-width="2" fill="none"/><use xlink:href="#m" transform="matrix(1,0,0,1,1005,725) translate(5.099999999999994 28.6)"/><use xlink:href="#n" transform="matrix(1,0,0,1,1005,725) translate(57 28.6)"/><use xlink:href="#o" transform="matrix(1,0,0,1,1005,725) translate(82 28.6)"/><use xlink:href="#c" transform="matrix(1,0,0,1,1005,725) translate(154.9 28.6)"/><path d="M998 751h-57.02v-2H998z"/><path d="M999 751h-1.03v-2H999z"/><path/><path/><g><use xlink:href="#p" transform="matrix(1,0,0,1,899.025,739.2) translate(0 14.4)"/><use xlink:href="#k" transform="matrix(1,0,0,1,899.025,739.2) translate(15 14.4)"/></g><path d="M660 720h180v60H660z" stroke="#000" stroke-width="2" fill="#fff"/><g><use xlink:href="#q" transform="matrix(1,0,0,1,665,725) translate(26.6 28.6)"/><use xlink:href="#r" transform="matrix(1,0,0,1,665,725) translate(70.45 28.6)"/><use xlink:href="#s" transform="matrix(1,0,0,1,665,725) translate(100.44999999999999 28.6)"/></g><path d="M980.8 770.35l-1.1.2-7.68 1.63-9.5 2.44-11.4 3.45-13.06 4.56-14.12 5.6-14.3 6.36-13.64 6.75-12.42 6.82-10.92 6.6-9.4 6.25-8 5.8-6.77 5.37-5.73 4.9-4.82 4.54-4.07 4.15-3.45 3.83-2.94 3.54-2.5 3.3-2.14 3.06-1.82 2.86-1.56 2.7-1.33 2.53-1.13 2.4-.96 2.3-.82 2.18-.68 2.1-.56 2.02-.46 1.94-.36 1.88-.27 1.83-.18 1.8-.1 1.74-.04 1.73v.86l.08 1.76.15 1.8.25 1.84.32 1.9.42 1.97.5 2.05.65 2.12.78 2.23.92 2.33 1.1 2.46 1.3 2.6 1.5 2.76 1.8 2.94 2.1 3.16 2.46 3.4 2.9 3.65 3.43 3.96 4.05 4.3 4.8 4.7 5.7 5.12 6.73 5.57 7.97 6.05 9.35 6.5 10.82 6.85 12.25 7.06 13.36 7 13.95 6.56 13.72 5.76 12.68 4.73 11.1 3.6 9.3 2.62 7.6 1.8 6.14 1.16 4.92.74 3.96.42 3.2.2 1.66.04-.04 2-1.7-.04-3.3-.2-4.04-.44-5-.74-6.2-1.2-7.7-1.8-9.38-2.63-11.18-3.64-12.76-4.74-13.8-5.8-14-6.6-13.46-7.02-12.3-7.1-10.9-6.92-9.42-6.54-8.03-6.1-6.8-5.6-5.76-5.2-4.85-4.74-4.1-4.37-3.48-4.03-2.96-3.72-2.5-3.46-2.15-3.22-1.82-3.02-1.56-2.84-1.33-2.67-1.13-2.53-.95-2.4-.8-2.3-.67-2.22-.54-2.12-.44-2.05-.33-1.98-.25-1.94-.16-1.88-.07-1.84-.02-.92.04-1.8.1-1.83.2-1.88.3-1.9.37-1.98.46-2.02.6-2.1.7-2.17.84-2.26 1-2.38 1.16-2.48 1.37-2.62 1.6-2.76 1.86-2.94 2.17-3.14 2.55-3.35 3-3.6 3.5-3.9 4.14-4.22 4.88-4.57 5.77-4.98 6.84-5.4 8.07-5.87 9.5-6.3 11-6.64 12.47-6.86 13.72-6.8 14.36-6.4 14.2-5.63 13.15-4.58 11.5-3.48 9.57-2.47 7.76-1.66 1.13-.2z"/><path d="M997.46 1014.12v2l-1.05-.02.06-2zM995.78 767.75l-13.7 6.12-.98-9.22z"/><path d="M999 767.4l-17.76 7.95-1.28-11.96zm-16.06 5l9.62-4.3-10.3-2.18z"/><defs><path d="M212-179c-10-28-35-45-73-45-59 0-87 40-87 99 0 60 29 101 89 101 43 0 62-24 78-52l27 14C228-24 195 4 139 4 59 4 22-46 18-125c-6-104 99-153 187-111 19 9 31 26 39 46" id="t"/><path d="M141-36C126-15 110 5 73 4 37 3 15-17 15-53c-1-64 63-63 125-63 3-35-9-54-41-54-24 1-41 7-42 31l-33-3c5-37 33-52 76-52 45 0 72 20 72 64v82c-1 20 7 32 28 27v20c-31 9-61-2-59-35zM48-53c0 20 12 33 32 33 41-3 63-29 60-74-43 2-92-5-92 41" id="u"/><path d="M210-169c-67 3-38 105-44 169h-31v-121c0-29-5-50-35-48C34-165 62-65 56 0H25l-1-190h30c1 10-1 24 2 32 10-44 99-50 107 0 11-21 27-35 58-36 85-2 47 119 55 194h-31v-121c0-29-5-49-35-48" id="v"/><path d="M85-194c31 0 48 13 60 33l-1-100h32l1 261h-30c-2-10 0-23-3-31C134-8 116 4 85 4 32 4 16-35 15-94c0-66 23-100 70-100zm9 24c-40 0-46 34-46 75 0 40 6 74 45 74 42 0 51-32 51-76 0-42-9-74-50-73" id="w"/><g id="a"><use transform="matrix(0.05,0,0,0.05,0,0)" xlink:href="#t"/><use transform="matrix(0.05,0,0,0.05,12.950000000000001,0)" xlink:href="#u"/><use transform="matrix(0.05,0,0,0.05,22.950000000000003,0)" xlink:href="#v"/><use transform="matrix(0.05,0,0,0.05,37.900000000000006,0)" xlink:href="#u"/><use transform="matrix(0.05,0,0,0.05,47.900000000000006,0)" xlink:href="#w"/><use transform="matrix(0.05,0,0,0.05,57.900000000000006,0)" xlink:href="#u"/></g><path d="M27 0v-27h64v-190l-56 39v-29l58-41h29v221h61V0H27" id="x"/><use transform="matrix(0.05,0,0,0.05,0,0)" xlink:href="#x" id="b"/><path d="M101-251c82-7 93 87 43 132L82-64C71-53 59-42 53-27h129V0H18c2-99 128-94 128-182 0-28-16-43-45-43s-46 15-49 41l-32-3c6-41 34-60 81-64" id="y"/><use transform="matrix(0.05,0,0,0.05,0,0)" xlink:href="#y" id="c"/><path d="M126-127c33 6 58 20 58 59 0 88-139 92-164 29-3-8-5-16-6-25l32-3c6 27 21 44 54 44 32 0 52-15 52-46 0-38-36-46-79-43v-28c39 1 72-4 72-42 0-27-17-43-46-43-28 0-47 15-49 41l-32-3c6-42 35-63 81-64 48-1 79 21 79 65 0 36-21 52-52 59" id="z"/><use transform="matrix(0.05,0,0,0.05,0,0)" xlink:href="#z" id="d"/><path d="M155-56V0h-30v-56H8v-25l114-167h33v167h35v25h-35zm-30-156c-27 46-58 90-88 131h88v-131" id="A"/><use transform="matrix(0.05,0,0,0.05,0,0)" xlink:href="#A" id="e"/><path d="M54-142c48-35 137-8 131 61C196 18 31 33 14-55l32-4c7 23 22 37 52 37 35-1 51-22 54-58 4-55-73-65-99-34H22l8-134h141v27H59" id="B"/><use transform="matrix(0.05,0,0,0.05,0,0)" xlink:href="#B" id="f"/><path d="M135-143c-3-34-86-38-87 0 15 53 115 12 119 90S17 21 10-45l28-5c4 36 97 45 98 0-10-56-113-15-118-90-4-57 82-63 122-42 12 7 21 19 24 35" id="C"/><g id="g"><use transform="matrix(0.05,0,0,0.05,0,0)" xlink:href="#t"/><use transform="matrix(0.05,0,0,0.05,12.950000000000001,0)" xlink:href="#u"/><use transform="matrix(0.05,0,0,0.05,22.950000000000003,0)" xlink:href="#v"/><use transform="matrix(0.05,0,0,0.05,37.900000000000006,0)" xlink:href="#u"/><use transform="matrix(0.05,0,0,0.05,47.900000000000006,0)" xlink:href="#w"/><use transform="matrix(0.05,0,0,0.05,57.900000000000006,0)" xlink:href="#u"/><use transform="matrix(0.05,0,0,0.05,67.9,0)" xlink:href="#C"/></g><path d="M66-151c12-25 30-51 66-40l-6 26C45-176 58-65 38 0H6l36-190h30" id="D"/><path d="M111-194c62-3 86 47 72 106H45c-7 38 6 69 45 68 27-1 43-14 53-32l24 11C152-15 129 4 87 4 38 3 12-23 12-71c0-70 32-119 99-123zm44 81c14-66-71-72-95-28-4 8-8 17-11 28h106" id="E"/><path d="M165-48c-4 18 1 34 23 27l-3 20c-29 8-62 0-52-35h-2C116-14 99 4 63 4 30 4 8-16 8-49c0-68 71-67 138-67 10-26 0-56-31-54-26 1-42 9-47 31l-32-5c8-67 160-71 144 15-5 28-9 54-15 81zM42-50c3 52 80 24 89-6 7-12 7-24 11-38-47 1-103-4-100 44" id="F"/><path d="M133-28C103 26-5 8 13-77c13-62 24-115 90-117 29-1 46 15 56 35l19-102h32L160 0h-30zM45-64c-2 27 10 43 35 43 54-1 69-50 69-103 0-29-15-46-42-46-53-1-58 58-62 106" id="G"/><path d="M18-82l6-28h88l-6 28H18" id="H"/><path d="M30-147c31-64 166-65 159 27C183-49 158 1 86 4 9 8 1-88 30-147zM88-20c53 0 68-48 68-100 0-31-11-51-44-50-52 1-68 46-68 97 0 32 13 53 44 53" id="I"/><path d="M67-158c22-48 132-52 116 29L158 0h-32l25-140c3-38-53-32-70-12C52-117 51-52 38 0H6l36-190h30" id="J"/><path d="M6 0l50-261h32L37 0H6" id="K"/><path d="M198-190L69 30C53 58 25 83-20 72c4-11-1-27 19-22 33-1 43-29 59-52L20-190h32L79-34l84-156h35" id="L"/><g id="h"><use transform="matrix(0.05,0,0,0.05,0,0)" xlink:href="#D"/><use transform="matrix(0.05,0,0,0.05,5.95,0)" xlink:href="#E"/><use transform="matrix(0.05,0,0,0.05,15.949999999999998,0)" xlink:href="#F"/><use transform="matrix(0.05,0,0,0.05,25.950000000000003,0)" xlink:href="#G"/><use transform="matrix(0.05,0,0,0.05,35.95,0)" xlink:href="#H"/><use transform="matrix(0.05,0,0,0.05,41.900000000000006,0)" xlink:href="#I"/><use transform="matrix(0.05,0,0,0.05,51.900000000000006,0)" xlink:href="#J"/><use transform="matrix(0.05,0,0,0.05,61.900000000000006,0)" xlink:href="#K"/><use transform="matrix(0.05,0,0,0.05,65.85000000000001,0)" xlink:href="#L"/></g><path d="M100-194c63 0 86 42 84 106H49c0 40 14 67 53 68 26 1 43-12 49-29l28 8c-11 28-37 45-77 45C44 4 14-33 15-96c1-61 26-98 85-98zm52 81c6-60-76-77-97-28-3 7-6 17-6 28h103" id="M"/><path d="M24-231v-30h32v30H24zM24 0v-190h32V0H24" id="N"/><path d="M59-47c-2 24 18 29 38 22v24C64 9 27 4 27-40v-127H5v-23h24l9-43h21v43h35v23H59v120" id="O"/><path d="M141-36C126-15 110 5 73 4 37 3 15-17 15-53c-1-64 63-63 125-63 3-35-9-54-41-54-24 1-41 7-42 31l-33-3c5-37 33-52 76-52 45 0 72 20 72 64v82c-1 20 7 32 28 27v20c-31 9-61-2-59-35zM48-53c0 20 12 33 32 33 41-3 63-29 60-74-43 2-92-5-92 41zm25-158c8-23 27-35 38-54h36v5l-58 49H73" id="P"/><path d="M108 0H70L1-190h34L89-25l56-165h34" id="Q"/><path d="M24 0v-261h32V0H24" id="R"/><g id="i"><use transform="matrix(0.05,0,0,0.05,0,0)" xlink:href="#M"/><use transform="matrix(0.05,0,0,0.05,10,0)" xlink:href="#w"/><use transform="matrix(0.05,0,0,0.05,20,0)" xlink:href="#N"/><use transform="matrix(0.05,0,0,0.05,23.95,0)" xlink:href="#O"/><use transform="matrix(0.05,0,0,0.05,28.950000000000003,0)" xlink:href="#P"/><use transform="matrix(0.05,0,0,0.05,38.95,0)" xlink:href="#Q"/><use transform="matrix(0.05,0,0,0.05,47.95,0)" xlink:href="#M"/><use transform="matrix(0.05,0,0,0.05,57.95,0)" xlink:href="#R"/></g><path d="M64 0c3-98 48-159 88-221H18v-27h164v26C143-157 98-101 97 0H64" id="S"/><g id="j"><use transform="matrix(0.05,0,0,0.05,0,0)" xlink:href="#x"/><use transform="matrix(0.05,0,0,0.05,10,0)" xlink:href="#S"/></g><path d="M240 0l2-218c-23 76-54 145-80 218h-23L58-218 59 0H30v-248h44l77 211c21-75 51-140 76-211h43V0h-30" id="T"/><path d="M160-131c35 5 61 23 61 61C221 17 115-2 30 0v-248c76 3 177-17 177 60 0 33-19 50-47 57zm-97-11c50-1 110 9 110-42 0-47-63-36-110-37v79zm0 115c55-2 124 14 124-45 0-56-70-42-124-44v89" id="U"/><g id="k"><use transform="matrix(0.05,0,0,0.05,0,0)" xlink:href="#T"/><use transform="matrix(0.05,0,0,0.05,14.950000000000001,0)" xlink:href="#U"/></g><use transform="matrix(0.05,0,0,0.05,0,0)" xlink:href="#y" id="l"/><path d="M100-194c62-1 85 37 85 99 1 63-27 99-86 99S16-35 15-95c0-66 28-99 85-99zM99-20c44 1 53-31 53-75 0-43-8-75-51-75s-53 32-53 75 10 74 51 75zM76-211c8-23 27-35 38-54h36v5l-58 49H76" id="V"/><path d="M115-194c55 1 70 41 70 98S169 2 115 4C84 4 66-9 55-30l1 105H24l-1-265h31l2 30c10-21 28-34 59-34zm-8 174c40 0 45-34 45-75s-6-73-45-74c-42 0-51 32-51 76 0 43 10 73 51 73" id="W"/><g id="m"><use transform="matrix(0.05,0,0,0.05,0,0)" xlink:href="#t"/><use transform="matrix(0.05,0,0,0.05,12.950000000000001,0)" xlink:href="#V"/><use transform="matrix(0.05,0,0,0.05,22.950000000000003,0)" xlink:href="#W"/><use transform="matrix(0.05,0,0,0.05,32.95,0)" xlink:href="#N"/><use transform="matrix(0.05,0,0,0.05,36.900000000000006,0)" xlink:href="#u"/></g><g id="n"><use transform="matrix(0.05,0,0,0.05,0,0)" xlink:href="#w"/><use transform="matrix(0.05,0,0,0.05,10,0)" xlink:href="#u"/></g><g id="o"><use transform="matrix(0.05,0,0,0.05,0,0)" xlink:href="#t"/><use transform="matrix(0.05,0,0,0.05,12.950000000000001,0)" xlink:href="#u"/><use transform="matrix(0.05,0,0,0.05,22.950000000000003,0)" xlink:href="#v"/><use transform="matrix(0.05,0,0,0.05,37.900000000000006,0)" xlink:href="#u"/><use transform="matrix(0.05,0,0,0.05,47.900000000000006,0)" xlink:href="#w"/><use transform="matrix(0.05,0,0,0.05,57.900000000000006,0)" xlink:href="#u"/></g><path d="M101-251c68 0 85 55 85 127S166 4 100 4C33 4 14-52 14-124c0-73 17-127 87-127zm-1 229c47 0 54-49 54-102s-4-102-53-102c-51 0-55 48-55 102 0 53 5 102 54 102" id="X"/><use transform="matrix(0.05,0,0,0.05,0,0)" xlink:href="#X" id="p"/><path d="M233-177c-1 41-23 64-60 70L243 0h-38l-65-103H63V0H30v-248c88 3 205-21 203 71zM63-129c60-2 137 13 137-47 0-61-80-42-137-45v92" id="Y"/><path d="M232-93c-1 65-40 97-104 97C67 4 28-28 28-90v-158h33c8 89-33 224 67 224 102 0 64-133 71-224h33v155" id="Z"/><path d="M190 0L58-211 59 0H30v-248h39L202-35l-2-213h31V0h-41" id="aa"/><g id="q"><use transform="matrix(0.05,0,0,0.05,0,0)" xlink:href="#Y"/><use transform="matrix(0.05,0,0,0.05,12.950000000000001,0)" xlink:href="#Z"/><use transform="matrix(0.05,0,0,0.05,25.900000000000002,0)" xlink:href="#aa"/></g><g id="r"><use transform="matrix(0.05,0,0,0.05,0,0)" xlink:href="#u"/><use transform="matrix(0.05,0,0,0.05,10,0)" xlink:href="#W"/><use transform="matrix(0.05,0,0,0.05,20,0)" xlink:href="#O"/></g><path d="M96-169c-40 0-48 33-48 73s9 75 48 75c24 0 41-14 43-38l32 2c-6 37-31 61-74 61-59 0-76-41-82-99-10-93 101-131 147-64 4 7 5 14 7 22l-32 3c-4-21-16-35-41-35" id="ab"/><path d="M117-194c89-4 53 116 60 194h-32v-121c0-31-8-49-39-48C34-167 62-67 57 0H25l-1-190h30c1 10-1 24 2 32 11-22 29-35 61-36" id="ac"/><g id="s"><use transform="matrix(0.05,0,0,0.05,0,0)" xlink:href="#ab"/><use transform="matrix(0.05,0,0,0.05,9,0)" xlink:href="#R"/><use transform="matrix(0.05,0,0,0.05,12.949999999999998,0)" xlink:href="#M"/><use transform="matrix(0.05,0,0,0.05,22.95,0)" xlink:href="#u"/><use transform="matrix(0.05,0,0,0.05,32.95,0)" xlink:href="#ac"/></g></defs></g></svg>