<svg xmlns="http://www.w3.org/2000/svg" xmlns:xlink="http://www.w3.org/1999/xlink" xmlns:lucid="lucid" width="360" height="262"><g transform="translate(-243 -872)" lucid:page-tab-id="0_0"><path d="M380 1032.45h180v60H380z" stroke="#000" stroke-width="2" fill="#fff"/><use xlink:href="#a" transform="matrix(1,0,0,1,385,1037.45232335146) translate(43.55 28.6)"/><use xlink:href="#b" transform="matrix(1,0,0,1,385,1037.45232335146) translate(116.45 28.6)"/><path d="M380 962.45h180v60H380z" stroke="#000" stroke-width="2" fill="#fff"/><use xlink:href="#a" transform="matrix(1,0,0,1,385,967.4523233514601) translate(43.55 28.6)"/><use xlink:href="#c" transform="matrix(1,0,0,1,385,967.4523233514601) translate(116.45 28.6)"/><path d="M380 892.45h180v60H380z" stroke="#000" stroke-width="2" fill="#fff"/><use xlink:href="#a" transform="matrix(1,0,0,1,385,897.4523233514601) translate(43.55 28.6)"/><use xlink:href="#d" transform="matrix(1,0,0,1,385,897.4523233514601) translate(116.45 28.6)"/><path d="M378 993.45h-49.13v-2H378z"/><path d="M379 993.45h-1.03v-2H379z"/><path/><path/><use xlink:href="#e" transform="matrix(1,0,0,1,286.91712339949015,981.6523233514602) translate(0 14.4)"/><use xlink:href="#f" transform="matrix(1,0,0,1,286.91712339949015,981.6523233514602) translate(15 14.4)"/><path d="M378 1063.45h-53.75v-2H378z"/><path d="M379 1063.45h-1.03v-2H379z"/><path/><path/><use xlink:href="#g" transform="matrix(1,0,0,1,282.29853318452507,1051.6523233514602) translate(0 14.4)"/><use xlink:href="#f" transform="matrix(1,0,0,1,282.29853318452507,1051.6523233514602) translate(15 14.4)"/><path d="M378 923.45h-57.02v-2H378z"/><path d="M379 923.45h-1.03v-2H379z"/><path/><path/><g><use xlink:href="#h" transform="matrix(1,0,0,1,279.025,911.6523233514602) translate(0 14.4)"/><use xlink:href="#f" transform="matrix(1,0,0,1,279.025,911.6523233514602) translate(15 14.4)"/></g><defs><path d="M212-179c-10-28-35-45-73-45-59 0-87 40-87 99 0 60 29 101 89 101 43 0 62-24 78-52l27 14C228-24 195 4 139 4 59 4 22-46 18-125c-6-104 99-153 187-111 19 9 31 26 39 46" id="i"/><path d="M141-36C126-15 110 5 73 4 37 3 15-17 15-53c-1-64 63-63 125-63 3-35-9-54-41-54-24 1-41 7-42 31l-33-3c5-37 33-52 76-52 45 0 72 20 72 64v82c-1 20 7 32 28 27v20c-31 9-61-2-59-35zM48-53c0 20 12 33 32 33 41-3 63-29 60-74-43 2-92-5-92 41" id="j"/><path d="M210-169c-67 3-38 105-44 169h-31v-121c0-29-5-50-35-48C34-165 62-65 56 0H25l-1-190h30c1 10-1 24 2 32 10-44 99-50 107 0 11-21 27-35 58-36 85-2 47 119 55 194h-31v-121c0-29-5-49-35-48" id="k"/><path d="M85-194c31 0 48 13 60 33l-1-100h32l1 261h-30c-2-10 0-23-3-31C134-8 116 4 85 4 32 4 16-35 15-94c0-66 23-100 70-100zm9 24c-40 0-46 34-46 75 0 40 6 74 45 74 42 0 51-32 51-76 0-42-9-74-50-73" id="l"/><g id="a"><use transform="matrix(0.05,0,0,0.05,0,0)" xlink:href="#i"/><use transform="matrix(0.05,0,0,0.05,12.950000000000001,0)" xlink:href="#j"/><use transform="matrix(0.05,0,0,0.05,22.950000000000003,0)" xlink:href="#k"/><use transform="matrix(0.05,0,0,0.05,37.900000000000006,0)" xlink:href="#j"/><use transform="matrix(0.05,0,0,0.05,47.900000000000006,0)" xlink:href="#l"/><use transform="matrix(0.05,0,0,0.05,57.900000000000006,0)" xlink:href="#j"/></g><path d="M27 0v-27h64v-190l-56 39v-29l58-41h29v221h61V0H27" id="m"/><use transform="matrix(0.05,0,0,0.05,0,0)" xlink:href="#m" id="b"/><path d="M101-251c82-7 93 87 43 132L82-64C71-53 59-42 53-27h129V0H18c2-99 128-94 128-182 0-28-16-43-45-43s-46 15-49 41l-32-3c6-41 34-60 81-64" id="n"/><use transform="matrix(0.05,0,0,0.05,0,0)" xlink:href="#n" id="c"/><path d="M126-127c33 6 58 20 58 59 0 88-139 92-164 29-3-8-5-16-6-25l32-3c6 27 21 44 54 44 32 0 52-15 52-46 0-38-36-46-79-43v-28c39 1 72-4 72-42 0-27-17-43-46-43-28 0-47 15-49 41l-32-3c6-42 35-63 81-64 48-1 79 21 79 65 0 36-21 52-52 59" id="o"/><use transform="matrix(0.05,0,0,0.05,0,0)" xlink:href="#o" id="d"/><path d="M110-160c48 1 74 30 74 79 0 53-28 85-80 85-65 0-83-55-86-122-5-90 50-162 133-122 14 7 22 21 27 39l-31 6c-5-40-67-38-82-6-9 19-15 44-15 74 11-20 30-34 60-33zm-7 138c34 0 49-23 49-58s-16-56-50-56c-29 0-50 16-49 49 1 36 15 65 50 65" id="p"/><use transform="matrix(0.05,0,0,0.05,0,0)" xlink:href="#p" id="e"/><path d="M240 0l2-218c-23 76-54 145-80 218h-23L58-218 59 0H30v-248h44l77 211c21-75 51-140 76-211h43V0h-30" id="q"/><path d="M160-131c35 5 61 23 61 61C221 17 115-2 30 0v-248c76 3 177-17 177 60 0 33-19 50-47 57zm-97-11c50-1 110 9 110-42 0-47-63-36-110-37v79zm0 115c55-2 124 14 124-45 0-56-70-42-124-44v89" id="r"/><g id="f"><use transform="matrix(0.05,0,0,0.05,0,0)" xlink:href="#q"/><use transform="matrix(0.05,0,0,0.05,14.950000000000001,0)" xlink:href="#r"/></g><use transform="matrix(0.05,0,0,0.05,0,0)" xlink:href="#n" id="g"/><path d="M101-251c68 0 85 55 85 127S166 4 100 4C33 4 14-52 14-124c0-73 17-127 87-127zm-1 229c47 0 54-49 54-102s-4-102-53-102c-51 0-55 48-55 102 0 53 5 102 54 102" id="s"/><use transform="matrix(0.05,0,0,0.05,0,0)" xlink:href="#s" id="h"/></defs></g></svg>